<svg xmlns="http://www.w3.org/2000/svg" width="105.049" height="100" viewBox="0 0 105.049 100"><g transform="translate(5.049)"><path d="M50,69.74c-27.61,0-50,6.17-50,13.78v1.7H0c.43,7.51,22.63,13.56,50,13.56s49.55-6,50-13.56h0v-1.7C100,75.91,77.61,69.74,50,69.74Zm0,22.83c-21.65,0-39.4-3.66-41.12-8.31C10.6,79.61,28.35,76,50,76s39.4,3.66,41.12,8.31C89.4,88.91,71.65,92.57,50,92.57Z"/><path d="M-309.429-280.048a1,1,0,0,1-.257-.034.994.994,0,0,1-.73-.854c-.436-4.536-2.407-10.371-4.494-16.549l-.006-.015c-1.177-3.484-2.394-7.087-3.344-10.5,2.456-8.995,3.027-15.324,1.8-19.919-.122-.456-.256-.917-.4-1.369.1-.158.2-.311.29-.455a22.965,22.965,0,0,1,4.838-5.359,21.463,21.463,0,0,1,6.079-3.452,19.753,19.753,0,0,1,6.809-1.222,19.235,19.235,0,0,1,4.979.657,19.174,19.174,0,0,1,7.322,3.787,20.61,20.61,0,0,1,5.107,6.348A22.541,22.541,0,0,1-279-320.945a23.913,23.913,0,0,1-.689,8.858c-1.672,6.242-9.314,12.965-16.7,19.468l-.007.006-.012.01c-4.916,4.326-9.559,8.412-12.214,12.146A.994.994,0,0,1-309.429-280.048Zm10.653-48.489a7.72,7.72,0,0,0-7.444,5.719,7.661,7.661,0,0,0,.774,5.851,7.662,7.662,0,0,0,4.68,3.6,7.746,7.746,0,0,0,2,.265,7.723,7.723,0,0,0,7.446-5.719,7.663,7.663,0,0,0-.771-5.853,7.662,7.662,0,0,0-4.683-3.594A7.753,7.753,0,0,0-298.776-328.537Z" transform="translate(371.119 359.609)" fill="#027ac7"/><path d="M25.874,0C11.588,0,0,12.563,0,28.062,0,41.555,19.7,62.214,24.716,75.634a1.24,1.24,0,0,0,2.316,0C32.046,62.169,51.748,41.51,51.748,28.062,51.748,12.563,40.16,0,25.874,0Zm0,33.332a9.646,9.646,0,1,1,9.646-9.646,9.646,9.646,0,0,1-9.646,9.646Z" transform="matrix(0.966, -0.259, 0.259, 0.966, -5.049, 19.793)" fill="#027ac7"/><rect width="100" height="100" fill="none"/></g></svg>